# xmcd
#
# Track frame offsets: 
#        150
#        9225
#        20402
#        40349
#        60143
#        77417
#        94769
#        111870
#        134991
#        149240
#        164806
#        177856
#        190830
#        206067
#
# Disc length: 3000 seconds
#
# Revision: 4
# Processed by: cddbd v1.5.2PL0 Copyright (c) Steve Scherf et al.
# Submitted via: ExactAudioCopy v0.99pb5
#
DISCID=c40bb60e
DTITLE=Roomful Of Blues - Standing Room Only
DYEAR=2005
DGENRE=Blues
TTITLE0=She Put A Spell On Me
TTITLE1=I Can't Stand You No More
TTITLE2=Boomerang
TTITLE3=The Love You Lost On The Way
TTITLE4=Just Keep On Rockin'
TTITLE5=Two For The Price Of Ten
TTITLE6=Straight Jaquette
TTITLE7=Sufferin' With The Blues
TTITLE8=Jona Lee
TTITLE9=Love Grown Cold
TTITLE10=My Mind Is Troubled
TTITLE11=Flip Flap Jack
TTITLE12=Up Jumped The Devil
TTITLE13=Nobody Knows
EXTD=advance YEAR: 2005
EXTT0=
EXTT1=
EXTT2=
EXTT3=
EXTT4=
EXTT5=
EXTT6=
EXTT7=
EXTT8=
EXTT9=
EXTT10=
EXTT11=
EXTT12=
EXTT13=
PLAYORDER=
